<svg width="167" height="81" viewBox="0 0 167 81" fill="none" xmlns="http://www.w3.org/2000/svg">
<path d="M79.26 4.96C78.49 6.5 78.05 8.26 77.61 10.46C75.19 22.01 69.91 39.72 61.11 51.05C51.1 63.92 38.01 74.15 17.88 80.42L10.4 72.17C31.74 66.89 44.06 57.54 53.3 45.77C61.11 35.76 66.17 20.47 67.71 9.91C61.33 9.91 17.77 9.91 11.39 9.91C6.99 9.91 3.25 10.13 0.500004 10.24V0.449995C3.47 0.889996 7.87 1.22 11.5 1.22C17.77 1.22 61.66 1.22 66.61 1.22C68.26 1.22 70.46 1.10999 72.55 0.669999L79.26 4.96ZM87.51 2.64999C91.8 2.87 94.66 2.87 97.3 2.87C103.13 2.87 150.98 2.87 156.37 2.87C158.68 2.87 162.64 2.87 166.05 2.76C165.83 5.4 165.83 8.48 165.83 11.23C165.83 16.4 165.83 61.28 165.83 65.46C165.83 68.98 165.94 77.56 166.05 78.77H156.48C156.59 77.56 156.7 71.29 156.7 66.67C156.7 62.6 156.7 11.56 156.7 11.56H96.64C96.64 11.56 96.64 62.16 96.64 66.67C96.64 70.3 96.75 77.34 96.75 78.77H87.4C87.4 77.34 87.62 69.31 87.62 65.46C87.62 60.95 87.62 15.52 87.62 11.23C87.62 8.69999 87.62 5.4 87.51 2.64999ZM160.33 63.92V72.5H92.24V63.92H160.33Z" fill="white"/>
</svg>
