<svg width="194" height="195" viewBox="0 0 194 195" fill="none" xmlns="http://www.w3.org/2000/svg">
<path d="M102.543 155.592C98.1048 155.201 93.6657 154.558 89.283 153.567C84.9003 152.57 80.5919 151.193 76.4235 149.438C72.0046 147.575 67.8115 145.186 63.834 142.542L62.8375 141.881L61.8682 141.18C61.228 140.704 60.5618 140.262 59.9458 139.754L58.0687 138.268L56.2557 136.701C53.8733 134.572 51.6207 132.291 49.5328 129.859C47.4669 127.408 45.5621 124.816 43.8409 122.099C42.1153 119.382 40.6413 116.504 39.3415 113.558C34.2067 101.744 32.5303 88.3708 34.9453 75.5865C35.6785 71.6494 36.8654 67.8087 38.334 64.1018C39.8119 60.3962 41.6102 56.8208 43.7423 53.4672C45.8589 50.1043 48.2404 46.9187 50.8515 43.9403C53.4905 40.9874 56.3464 38.2397 59.3843 35.7143C62.4116 33.1736 65.6736 30.9265 69.0595 28.8999C72.4504 26.8811 75.9669 25.0975 79.6042 23.6116C83.2341 22.1122 86.9537 20.8517 90.7298 19.8192C94.513 18.8149 98.3486 18.0423 102.209 17.4774C106.871 16.8014 111.635 16.6678 116.255 16.8335C117.362 16.8866 118.369 16.9651 119.284 17.0859C120.198 17.2273 121.018 17.394 121.752 17.5816C122.487 17.7616 123.134 17.988 123.702 18.2348C124.27 18.4777 124.759 18.7347 125.178 19.0015C126.398 19.779 126.322 20.5004 125.209 21.027C124.652 21.2902 123.835 21.5048 122.785 21.6523C121.735 21.8179 120.45 21.9459 118.953 21.9934C115.162 22.1693 111.042 22.3467 107.147 22.6621C98.1859 23.3811 89.3207 25.4412 81.0975 28.9835C76.9885 30.7535 73.0412 32.8874 69.3598 35.3862C65.675 37.8859 62.2397 40.7485 59.13 43.9144C55.6895 47.4135 52.6019 51.4521 49.8223 55.2844C47.6056 58.354 45.6968 61.6594 44.1442 65.1285C42.5686 68.5913 41.4518 72.2475 40.6557 75.9598C39.1014 83.4085 39.1151 91.1679 40.3761 98.6853C40.8656 101.477 41.531 104.246 42.4029 106.953C43.3009 109.652 44.3739 112.292 45.621 114.85C46.9028 117.388 48.3521 119.841 49.9494 122.198C51.5749 124.537 53.3539 126.766 55.2488 128.893C62.0686 136.426 70.6958 142.349 80.2114 145.978C84.9784 147.793 89.9758 149.026 95.0542 149.843C100.136 150.657 105.306 151.043 110.496 151.161C118.781 151.327 126.657 151.236 133.747 151.89C137.006 152.192 136.891 153.495 133.165 154.055C127.891 154.848 122.31 155.466 116.699 155.755C112.085 155.996 107.312 155.841 102.591 155.508C102.576 155.537 102.562 155.563 102.543 155.592Z" fill="black"/>
<path d="M112.502 134.761C126.981 141.022 142.773 146.172 157.19 150.53C142.631 154.739 130.773 165.168 119.696 175.556C124.208 172.039 127.753 167.251 131.275 162.734C133.823 159.466 134.724 155.439 133.78 151.922C132.778 148.189 126.696 144.01 123.452 141.932C119.753 139.562 116.054 137.192 112.354 134.822" fill="black"/>
<path d="M130.118 142.926C131.139 143.788 132.142 144.702 133.104 145.736C134.06 146.78 135.002 147.914 135.766 149.45L136.04 150.042C136.127 150.243 136.197 150.484 136.272 150.704L136.378 151.043L136.428 151.212L136.459 151.356L136.579 151.935C136.711 152.708 136.8 153.487 136.797 154.26C136.823 155.808 136.563 157.323 136.131 158.757C135.653 160.271 134.966 161.702 134.099 162.992C133.682 163.635 133.156 164.284 132.781 164.762C132.373 165.279 131.97 165.803 131.568 166.332C130.083 168.293 128.555 170.278 126.885 172.205C125.217 174.131 123.387 175.994 121.323 177.665C120.182 178.589 118.512 178.409 117.592 177.262C116.725 176.179 116.836 174.624 117.81 173.675L117.884 173.604C121.198 170.395 124.569 167.2 128.107 164.138C131.638 161.073 135.372 158.17 139.357 155.567L140.332 154.931L141.331 154.324C142.001 153.927 142.652 153.502 143.344 153.135L145.399 152.003L147.507 150.956C150.347 149.609 153.298 148.458 156.338 147.552L156.302 153.498C150.864 151.861 145.434 150.164 140.027 148.37C134.622 146.572 129.236 144.688 123.894 142.658C121.427 141.73 119.028 140.546 116.698 139.365C114.468 138.224 113.267 136.91 112.73 135.636C111.953 133.777 113.881 132.99 117.213 133.995C119.326 134.63 121.554 135.516 123.645 136.414C133.279 140.545 143.268 143.774 153.428 146.394C154.958 146.789 156.532 147.161 158.073 147.581C159.69 148.022 160.646 149.698 160.207 151.324C159.937 152.323 159.204 153.07 158.303 153.396L158.037 153.49C157.442 153.701 156.848 153.9 156.255 154.082C155.959 154.176 155.66 154.252 155.367 154.348C155.076 154.446 154.784 154.538 154.493 154.625C150.386 155.833 146.448 157.768 142.756 160.131C139.049 162.483 135.538 165.186 132.038 167.933C128.346 170.848 124.835 174.062 121.325 177.311L118.232 173.658C119.655 172.551 121.011 171.313 122.309 169.972C124.314 167.914 126.183 165.636 128.063 163.302L129.48 161.542C129.609 161.386 129.69 161.273 129.792 161.142C129.889 161.014 129.992 160.891 130.079 160.756L130.352 160.361L130.602 159.952C131.258 158.856 131.724 157.655 131.972 156.422C132.206 155.189 132.229 153.922 131.971 152.723C131.915 152.388 131.826 152.211 131.761 151.967C131.632 151.721 131.551 151.473 131.376 151.214C131.092 150.699 130.671 150.179 130.249 149.668C129.367 148.649 128.312 147.685 127.208 146.771C126.098 145.856 124.927 144.986 123.72 144.153C122.764 143.492 121.782 142.823 120.843 142.135C119.904 141.449 118.997 140.75 118.128 140.036C116.391 138.609 114.808 137.12 113.426 135.548C112.157 134.099 112.95 133.075 114.912 133.989C117.689 135.28 120.512 136.774 123.266 138.347C123.832 138.67 124.394 139.008 124.953 139.356C125.524 139.712 126.103 140.089 126.671 140.481C127.812 141.264 128.934 142.101 130.045 142.979C130.069 142.962 130.091 142.946 130.118 142.926Z" fill="black"/>
</svg>
